<svg width="16" height="16" viewBox="0 0 16 16" fill="none" xmlns="http://www.w3.org/2000/svg">
<path d="M12.0726 6.16124C12.125 6.10973 12.1868 6.06947 12.2542 6.04274C12.3217 6.01602 12.3936 6.00335 12.4657 6.00547C12.5379 6.00759 12.609 6.02446 12.6749 6.0551C12.7408 6.08575 12.8002 6.12957 12.8498 6.18408C12.8994 6.23858 12.9382 6.3027 12.9639 6.37276C12.9896 6.44283 13.0018 6.51747 12.9998 6.59243C12.9977 6.66739 12.9815 6.7412 12.952 6.80964C12.9225 6.87808 12.8803 6.93982 12.8278 6.99132L7.88072 11.8439C7.77866 11.9442 7.64354 12 7.50309 12C7.36264 12 7.22752 11.9442 7.12546 11.8439L2.17781 6.99132C2.12419 6.94016 2.08088 6.87844 2.05042 6.80974C2.01995 6.74105 2.00293 6.66675 2.00035 6.59117C1.99776 6.51558 2.00966 6.44022 2.03536 6.36945C2.06105 6.29869 2.10003 6.23393 2.15002 6.17894C2.20002 6.12395 2.26004 6.07983 2.32659 6.04913C2.39314 6.01844 2.46491 6.00178 2.53771 6.00014C2.61051 5.99849 2.6829 6.01188 2.75068 6.03954C2.81846 6.0672 2.88027 6.10856 2.93252 6.16124L7.50309 10.6439L12.0726 6.16124Z" fill="#2E2F32"/>
</svg>
