<svg width="20" height="20" viewBox="0 0 20 20" fill="none" xmlns="http://www.w3.org/2000/svg">
<g clip-path="url(#clip0_297_7637)">
<path d="M0 16.6667H20M0 19.3334H20M3.33333 5.33335V3.33335H5.33333M14.6667 3.33335H16.6667V5.33335M3.33333 9.33335V11.3334H5.33333M14.6667 11.3334H16.6667V9.33335M10 10C9.29276 10 8.61448 9.71907 8.11438 9.21897C7.61429 8.71887 7.33333 8.0406 7.33333 7.33335C7.33333 6.62611 7.61429 5.94783 8.11438 5.44774C8.61448 4.94764 9.29276 4.66669 10 4.66669C10.7072 4.66669 11.3855 4.94764 11.8856 5.44774C12.3857 5.94783 12.6667 6.62611 12.6667 7.33335C12.6667 8.0406 12.3857 8.71887 11.8856 9.21897C11.3855 9.71907 10.7072 10 10 10ZM2 0.666687H18C18.3536 0.666687 18.6928 0.807163 18.9428 1.05721C19.1929 1.30726 19.3333 1.6464 19.3333 2.00002V12.6667C19.3333 13.0203 19.1929 13.3594 18.9428 13.6095C18.6928 13.8595 18.3536 14 18 14H2C1.64638 14 1.30724 13.8595 1.05719 13.6095C0.807143 13.3594 0.666667 13.0203 0.666667 12.6667V2.00002C0.666667 1.6464 0.807143 1.30726 1.05719 1.05721C1.30724 0.807163 1.64638 0.666687 2 0.666687Z" stroke="white" stroke-width="0.8"/>
</g>
<defs>
<clipPath id="clip0_297_7637">
<rect width="20" height="20" fill="white"/>
</clipPath>
</defs>
</svg>
