<svg width="20" height="20" viewBox="0 0 20 20" fill="none" xmlns="http://www.w3.org/2000/svg">
<g clip-path="url(#clip0_297_7582)">
<path d="M16.6056 6.02289C16.8522 6.02289 17.0902 5.92598 17.2699 5.74633L19.8538 3.16241C19.9807 3.03542 20.029 2.85601 19.9828 2.6825C19.9367 2.50903 19.8057 2.37732 19.6324 2.33017L18.3062 1.96951C18.2321 1.94936 18.1566 1.93908 18.0816 1.93737C18.0799 1.86225 18.0696 1.78682 18.0494 1.71268L17.6887 0.386507C17.6416 0.213191 17.5099 0.0822177 17.3364 0.036086C17.1628 -0.0100847 16.9834 0.0381954 16.8565 0.165145L14.2726 2.74903C14.0402 2.97726 13.9347 3.36827 14.0403 3.71302C12.5496 2.67512 10.766 2.11084 8.93513 2.11084C3.84334 2.09728 -0.0318719 6.32839 0.000197597 11.0461C0.000197597 13.4328 0.929588 15.6765 2.61716 17.3641C4.30474 19.0517 6.54851 19.981 8.93517 19.981C13.9797 19.9876 17.8933 15.8367 17.8701 11.0425C17.8693 9.22855 17.3135 7.45809 16.2919 5.97523C16.4163 6.00156 16.3945 6.00937 16.6056 6.02289ZM19.3319 2.85566L16.8556 5.33201C16.7677 5.41982 16.6431 5.4554 16.5223 5.42728L16.1488 5.34048L16.8783 4.61105C17.2117 4.27758 17.2706 3.7722 17.0555 3.37772L17.8062 2.62696C17.8965 2.53665 18.0292 2.5013 18.1524 2.53493L19.3319 2.85566ZM17.2757 11.4171C17.1198 15.4552 13.8747 19.1952 9.28285 19.3875C9.26465 19.3883 9.24641 19.3889 9.22817 19.3895V17.7384C12.6895 17.5886 15.4778 14.8002 15.6274 11.3389H17.2785C17.2776 11.365 17.2768 11.3911 17.2757 11.4171ZM0.591745 10.753C0.674204 6.86865 3.85369 2.86551 8.64224 2.70235V4.35348C5.181 4.5032 2.39271 7.29157 2.24287 10.753L0.591745 10.753ZM16.464 3.55494C16.6409 3.73185 16.6409 4.01977 16.464 4.19672L13.6386 7.022C13.4145 7.2461 13.1335 7.4052 12.826 7.48199L12.4406 7.57828L12.5369 7.19286C12.6137 6.8854 12.7728 6.6044 12.9969 6.38026L15.8221 3.55494C15.9106 3.46643 16.0268 3.42225 16.143 3.42225C16.2592 3.42225 16.3755 3.46647 16.464 3.55494ZM5.2251 10.753C5.36744 8.93402 6.82323 7.47824 8.64224 7.3359V8.93719C7.70211 9.06718 6.95639 9.81287 6.82639 10.753H5.2251ZM10.8453 9.17367C10.9025 9.23085 10.9775 9.25945 11.0524 9.25945C11.1274 9.25945 11.2024 9.23085 11.2596 9.17367L11.7817 8.65149C12.2684 9.22909 12.5829 9.95611 12.6453 10.753H11.044C10.914 9.81287 10.1683 9.06718 9.22813 8.93719V7.3359C10.0438 7.39973 10.7865 7.72765 11.3705 8.23408L10.8452 8.75934C10.7308 8.87375 10.7308 9.05922 10.8453 9.17367ZM9.22817 9.53069C9.84467 9.64967 10.3315 10.1365 10.4505 10.753H9.22817V9.53069ZM9.22817 11.3389H10.4505C10.3315 11.9555 9.84467 12.4423 9.22817 12.5612V11.3389ZM11.044 11.3389H12.6453C12.503 13.1579 11.0471 14.6137 9.22813 14.7561V13.1548C10.1683 13.0248 10.914 12.2791 11.044 11.3389ZM8.64224 9.53069V10.753H7.41989C7.53887 10.1365 8.0257 9.64967 8.64224 9.53069ZM8.64224 11.3389V12.5613C8.0257 12.4423 7.53887 11.9555 7.41989 11.3389H8.64224ZM9.22817 15.3433C11.3703 15.1987 13.0879 13.4811 13.2326 11.3389H15.0411C14.8924 14.4771 12.3664 17.0033 9.2282 17.1521L9.22817 15.3433ZM13.2325 10.753C13.168 9.79752 12.7907 8.92649 12.2022 8.24178L12.968 8.05045C13.3297 7.9601 13.6638 7.78444 13.9428 7.53941C14.611 8.4895 14.9871 9.58944 15.0412 10.753H13.2325ZM12.5826 5.96594C12.2833 6.26519 12.0709 6.64037 11.9684 7.05087L11.7781 7.81276C11.0876 7.20493 10.2017 6.81435 9.22813 6.74861V4.93995C10.0658 4.97885 10.8704 5.18451 11.6236 5.55384C11.7689 5.62497 11.9443 5.56509 12.0156 5.41974C12.0868 5.27447 12.0268 5.09897 11.8815 5.02772C11.0474 4.61874 10.156 4.39289 9.22809 4.35355V2.70239C10.9909 2.76442 12.6924 3.38436 14.0788 4.46957L12.5826 5.96594ZM8.64224 4.93979V6.74861C6.50007 6.89322 4.78246 8.61079 4.63785 10.753H2.82919C2.97809 7.61468 5.50412 5.08857 8.64224 4.93979ZM4.6377 11.3389C4.68492 12.0363 4.90015 12.711 5.26749 13.3059C5.35244 13.4436 5.53295 13.4862 5.67068 13.4013C5.80833 13.3163 5.85106 13.1358 5.76607 12.9981C5.45592 12.4957 5.27166 11.9272 5.22553 11.3389H6.82639C6.95639 12.279 7.70211 13.0247 8.64224 13.1547V14.7559C7.89707 14.6988 7.1997 14.4242 6.6105 13.9523C6.48421 13.8511 6.29984 13.8715 6.19871 13.9978C6.09754 14.124 6.11793 14.3084 6.24422 14.4096C6.92776 14.9572 7.76988 15.2825 8.64228 15.3425V17.1521C5.50404 17.0033 2.97793 14.4772 2.82923 11.3389L4.6377 11.3389ZM15.6279 10.753C15.572 9.43491 15.1393 8.19029 14.3659 7.12345L15.5445 5.94476C16.6088 7.32317 17.217 9.00945 17.2785 10.753H15.6279ZM14.6869 3.16331L17.1632 0.686968L17.484 1.86639C17.5175 1.98963 17.4823 2.12228 17.3919 2.21255L16.6412 2.96336C16.2467 2.74828 15.7413 2.80715 15.4079 3.14058L14.6784 3.87005L14.5916 3.49658C14.5635 3.37569 14.5991 3.25108 14.6869 3.16331ZM0.591745 11.3389H2.24287C2.39252 14.8003 5.18089 17.5887 8.64224 17.7384V19.3895C6.52195 19.3169 4.53911 18.4575 3.03145 16.9498C1.52379 15.4421 0.664321 13.4593 0.591745 11.3389Z" fill="white"/>
</g>
<defs>
<clipPath id="clip0_297_7582">
<rect width="20" height="20" fill="white"/>
</clipPath>
</defs>
</svg>
