<svg width="20" height="20" viewBox="0 0 20 20" fill="none" xmlns="http://www.w3.org/2000/svg">
<path d="M2.19981 16.987C2.27232 16.987 2.34186 16.9582 2.39314 16.9069C2.44441 16.8556 2.47322 16.7861 2.47322 16.7136V16.6439H17.5256V16.7136C17.5256 16.7861 17.5544 16.8556 17.6057 16.9069C17.6569 16.9582 17.7265 16.987 17.799 16.987C17.8715 16.987 17.941 16.9582 17.9923 16.9069C18.0436 16.8556 18.0724 16.7861 18.0724 16.7136V16.3705C18.0724 16.298 18.0436 16.2285 17.9923 16.1772C17.941 16.1259 17.8715 16.0971 17.799 16.0971H17.1107V15.4143C17.1107 15.3418 17.0819 15.2722 17.0306 15.221C16.9794 15.1697 16.9098 15.1409 16.8373 15.1409H16.8008V8.36057C16.8008 8.28806 16.772 8.21851 16.7208 8.16724C16.6695 8.11596 16.5999 8.08716 16.5274 8.08716C16.4549 8.08716 16.3854 8.11596 16.3341 8.16724C16.2828 8.21851 16.254 8.28806 16.254 8.36057V15.1412H15.9456V8.36057C15.9456 8.28806 15.9168 8.21851 15.8655 8.16724C15.8143 8.11596 15.7447 8.08716 15.6722 8.08716C15.5997 8.08716 15.5301 8.11596 15.4789 8.16724C15.4276 8.21851 15.3988 8.28806 15.3988 8.36057V15.1412H15.3623C15.2898 15.1412 15.2203 15.1701 15.169 15.2213C15.1177 15.2726 15.0889 15.3421 15.0889 15.4147V16.0975H14.6879V15.4143C14.6879 15.3418 14.6591 15.2722 14.6078 15.221C14.5565 15.1697 14.487 15.1409 14.4145 15.1409H14.378V8.36057C14.378 8.28806 14.3492 8.21851 14.298 8.16724C14.2467 8.11596 14.1771 8.08716 14.1046 8.08716C14.0321 8.08716 13.9626 8.11596 13.9113 8.16724C13.86 8.21851 13.8312 8.28806 13.8312 8.36057V15.1412H13.5232V8.36057C13.5232 8.28806 13.4944 8.21851 13.4431 8.16724C13.3918 8.11596 13.3223 8.08716 13.2497 8.08716C13.1772 8.08716 13.1077 8.11596 13.0564 8.16724C13.0051 8.21851 12.9763 8.28806 12.9763 8.36057V15.1412H12.9399C12.8674 15.1412 12.7978 15.1701 12.7465 15.2213C12.6953 15.2726 12.6665 15.3421 12.6665 15.4147V16.0975H12.2432V15.4143C12.2432 15.3418 12.2144 15.2722 12.1631 15.221C12.1119 15.1697 12.0423 15.1409 11.9698 15.1409H11.9333V8.36057C11.9333 8.28806 11.9045 8.21851 11.8533 8.16724C11.802 8.11596 11.7324 8.08716 11.6599 8.08716C11.5874 8.08716 11.5179 8.11596 11.4666 8.16724C11.4153 8.21851 11.3865 8.28806 11.3865 8.36057V15.1412H11.0785V8.36057C11.0785 8.28806 11.0497 8.21851 10.9984 8.16724C10.9471 8.11596 10.8776 8.08716 10.8051 8.08716C10.7325 8.08716 10.663 8.11596 10.6117 8.16724C10.5605 8.21851 10.5316 8.28806 10.5316 8.36057V15.1412H10.4952C10.4227 15.1412 10.3531 15.1701 10.3019 15.2213C10.2506 15.2726 10.2218 15.3421 10.2218 15.4147V16.0975H9.79853V15.4143C9.79853 15.3418 9.76972 15.2722 9.71845 15.221C9.66717 15.1697 9.59763 15.1409 9.52512 15.1409H9.48866V8.36057C9.48866 8.28806 9.45986 8.21851 9.40858 8.16724C9.35731 8.11596 9.28776 8.08716 9.21525 8.08716C9.14273 8.08716 9.07319 8.11596 9.02191 8.16724C8.97064 8.21851 8.94183 8.28806 8.94183 8.36057V15.1412H8.63342V8.36057C8.63342 8.28806 8.60462 8.21851 8.55334 8.16724C8.50207 8.11596 8.43252 8.08716 8.36001 8.08716C8.28749 8.08716 8.21795 8.11596 8.16668 8.16724C8.1154 8.21851 8.08659 8.28806 8.08659 8.36057V15.1412H8.05014C7.97762 15.1412 7.90808 15.1701 7.85681 15.2213C7.80553 15.2726 7.77672 15.3421 7.77672 15.4147V16.0975H7.35384V15.4143C7.35384 15.3418 7.32504 15.2722 7.27376 15.221C7.22249 15.1697 7.15294 15.1409 7.08043 15.1409H7.04397V8.36057C7.04397 8.28806 7.01517 8.21851 6.96389 8.16724C6.91262 8.11596 6.84307 8.08716 6.77056 8.08716C6.69805 8.08716 6.6285 8.11596 6.57723 8.16724C6.52595 8.21851 6.49715 8.28806 6.49715 8.36057V15.1412H6.18874V8.36057C6.18874 8.28806 6.15993 8.21851 6.10865 8.16724C6.05738 8.11596 5.98783 8.08716 5.91532 8.08716C5.84281 8.08716 5.77326 8.11596 5.72199 8.16724C5.67071 8.21851 5.64191 8.28806 5.64191 8.36057V15.1412H5.60545C5.53294 15.1412 5.46339 15.1701 5.41212 15.2213C5.36084 15.2726 5.33204 15.3421 5.33204 15.4147V16.0975H4.90952V15.4143C4.90952 15.3418 4.88072 15.2722 4.82944 15.221C4.77817 15.1697 4.70862 15.1409 4.63611 15.1409H4.59965V8.36057C4.59965 8.28806 4.57085 8.21851 4.51957 8.16724C4.4683 8.11596 4.39875 8.08716 4.32624 8.08716C4.25372 8.08716 4.18418 8.11596 4.13291 8.16724C4.08163 8.21851 4.05282 8.28806 4.05282 8.36057V15.1412H3.74441V8.36057C3.74441 8.28806 3.71561 8.21851 3.66433 8.16724C3.61306 8.11596 3.54351 8.08716 3.471 8.08716C3.39849 8.08716 3.32894 8.11596 3.27767 8.16724C3.22639 8.21851 3.19758 8.28806 3.19758 8.36057V15.1412H3.16113C3.08862 15.1412 3.01907 15.1701 2.9678 15.2213C2.91652 15.2726 2.88772 15.3421 2.88772 15.4147V16.0975H2.19981C2.12729 16.0975 2.05775 16.1263 2.00647 16.1775C1.9552 16.2288 1.92639 16.2984 1.92639 16.3709V16.7139C1.92649 16.7864 1.95534 16.8558 2.0066 16.907C2.05787 16.9582 2.12735 16.987 2.19981 16.987ZM15.6361 15.6881H16.5639V16.0975H15.6361V15.6881ZM13.2133 15.6881H14.1411V16.0975H13.2133V15.6881ZM10.7686 15.6881H11.6964V16.0975H10.7686V15.6881ZM8.32392 15.6881H9.2517V16.0975H8.32246L8.32392 15.6881ZM5.88142 15.6881H6.80884V16.0975H5.87996L5.88142 15.6881ZM3.43673 15.6881H4.36269V16.0975H3.43491L3.43673 15.6881Z" fill="white"/>
<path d="M18.4751 17.1499H1.52341C1.4509 17.1499 1.38136 17.1787 1.33008 17.23C1.27881 17.2813 1.25 17.3508 1.25 17.4233V18.4765C1.25 18.549 1.27881 18.6186 1.33008 18.6698C1.38136 18.7211 1.4509 18.7499 1.52341 18.7499C1.59593 18.7499 1.66547 18.7211 1.71675 18.6698C1.76802 18.6186 1.79683 18.549 1.79683 18.4765V17.6967H18.2017V18.4765C18.2017 18.549 18.2305 18.6186 18.2818 18.6698C18.333 18.7211 18.4026 18.7499 18.4751 18.7499C18.5476 18.7499 18.6171 18.7211 18.6684 18.6698C18.7197 18.6186 18.7485 18.549 18.7485 18.4765V17.4233C18.7485 17.3508 18.7197 17.2813 18.6684 17.23C18.6171 17.1787 18.5476 17.1499 18.4751 17.1499Z" fill="white"/>
<path d="M2.19963 6.40269H2.88791V7.61629C2.88791 7.6888 2.91671 7.75834 2.96799 7.80962C3.01926 7.86089 3.08881 7.8897 3.16132 7.8897H16.8371C16.9096 7.8897 16.9792 7.86089 17.0305 7.80962C17.0817 7.75834 17.1105 7.6888 17.1105 7.61629V6.40269H17.8006C17.8611 6.40325 17.92 6.38376 17.9682 6.34729C18.0164 6.31081 18.0511 6.2594 18.067 6.20109C18.0828 6.14277 18.0789 6.08084 18.0559 6.02498C18.0328 5.96912 17.9919 5.92246 17.9395 5.89232L10.1381 1.28802C10.0961 1.26313 10.0481 1.25 9.99922 1.25C9.95035 1.25 9.90238 1.26313 9.86033 1.28802L2.06074 5.89378C2.00836 5.92392 1.96744 5.97057 1.94439 6.02644C1.92133 6.0823 1.91743 6.14423 1.9333 6.20254C1.94917 6.26086 1.98391 6.31227 2.0321 6.34875C2.08029 6.38522 2.1392 6.4047 2.19963 6.40415V6.40269ZM9.99922 1.84251L16.7978 5.85586H4.63593C4.56342 5.85586 4.49387 5.88467 4.4426 5.93594C4.39132 5.98722 4.36252 6.05676 4.36252 6.12928C4.36252 6.20179 4.39132 6.27134 4.4426 6.32261C4.49387 6.37389 4.56342 6.40269 4.63593 6.40269H16.5637V7.34287H3.43473V6.40269H3.89844C3.97096 6.40269 4.0405 6.37389 4.09178 6.32261C4.14305 6.27134 4.17186 6.20179 4.17186 6.12928C4.17186 6.05676 4.14305 5.98722 4.09178 5.93594C4.0405 5.88467 3.97096 5.85586 3.89844 5.85586H3.20069L9.99922 1.84251Z" fill="white"/>
<path d="M9.99851 5.17514C10.2113 5.17463 10.4192 5.11106 10.5959 4.99245C10.7726 4.87383 10.9102 4.70551 10.9913 4.50873C11.0724 4.31196 11.0933 4.09557 11.0515 3.8869C11.0096 3.67824 10.9068 3.48666 10.7561 3.33637C10.6054 3.18609 10.4136 3.08384 10.2048 3.04255C9.99604 3.00126 9.7797 3.02278 9.58315 3.10439C9.38659 3.186 9.21864 3.32404 9.10051 3.50106C8.98237 3.67809 8.91936 3.88616 8.91943 4.09898C8.92021 4.38466 9.03423 4.65838 9.23652 4.86012C9.4388 5.06185 9.71282 5.17514 9.99851 5.17514ZM9.99851 3.57111C10.1032 3.57161 10.2053 3.60311 10.2921 3.66162C10.3789 3.72012 10.4464 3.80303 10.4861 3.89986C10.5258 3.99669 10.5359 4.10311 10.5152 4.2057C10.4944 4.30828 10.4438 4.40242 10.3696 4.47624C10.2954 4.55007 10.201 4.60026 10.0984 4.6205C9.99568 4.64073 9.88931 4.63009 9.79267 4.58993C9.69603 4.54976 9.61345 4.48187 9.55536 4.39482C9.49727 4.30777 9.46626 4.20546 9.46626 4.1008C9.46626 4.03094 9.48003 3.96176 9.50679 3.89723C9.53355 3.8327 9.57276 3.77407 9.6222 3.7247C9.67163 3.67534 9.73031 3.6362 9.79488 3.60953C9.85945 3.58287 9.92865 3.56919 9.99851 3.56928V3.57111Z" fill="white"/>
</svg>
