<svg width="20" height="20" viewBox="0 0 20 20" fill="none" xmlns="http://www.w3.org/2000/svg">
<path d="M10.4167 18.3334H15C15.4421 18.3334 15.866 18.1578 16.1786 17.8452C16.4911 17.5326 16.6667 17.1087 16.6667 16.6667V5.83335L12.5 1.66669H5.00004C4.55801 1.66669 4.13409 1.84228 3.82153 2.15484C3.50897 2.4674 3.33337 2.89133 3.33337 3.33335V11.25" stroke="white" stroke-width="0.8" stroke-linecap="round" stroke-linejoin="round"/>
<path d="M11.6667 1.66669V5.00002C11.6667 5.44205 11.8423 5.86597 12.1549 6.17853C12.4674 6.49109 12.8914 6.66669 13.3334 6.66669H16.6667M11.1484 13.0217C11.3128 12.8573 11.4432 12.6622 11.5321 12.4474C11.6211 12.2327 11.6669 12.0025 11.6669 11.77C11.6669 11.5376 11.6211 11.3074 11.5321 11.0926C11.4432 10.8779 11.3128 10.6827 11.1484 10.5184C10.984 10.354 10.7889 10.2236 10.5741 10.1346C10.3594 10.0457 10.1292 9.9999 9.89673 9.9999C9.66427 9.9999 9.43409 10.0457 9.21933 10.1346C9.00457 10.2236 8.80943 10.354 8.64506 10.5184L4.47006 14.695C4.27193 14.893 4.12691 15.1378 4.0484 15.4067L3.3509 17.7984C3.32998 17.8701 3.32873 17.9461 3.34726 18.0184C3.3658 18.0908 3.40345 18.1568 3.45627 18.2096C3.50908 18.2625 3.57513 18.3001 3.64749 18.3187C3.71984 18.3372 3.79585 18.3359 3.86756 18.315L6.25923 17.6175C6.52812 17.539 6.77288 17.394 6.97089 17.1959L11.1484 13.0217Z" stroke="white" stroke-width="0.8" stroke-linecap="round" stroke-linejoin="round"/>
</svg>
