<svg width="20" height="20" viewBox="0 0 20 20" fill="none" xmlns="http://www.w3.org/2000/svg">
<path d="M4.16669 14.1667C2.98752 14.1667 2.39835 14.1667 2.03335 14.4717C1.66669 14.7767 1.66669 15.2684 1.66669 16.25C1.66669 17.2317 1.66752 17.7234 2.03335 18.0284C2.39919 18.3334 2.98752 18.3334 4.16669 18.3334C5.34585 18.3334 5.93502 18.3334 6.30002 18.0284C6.66669 17.7234 6.66669 17.2317 6.66669 16.25C6.66669 15.2684 6.66585 14.7767 6.30002 14.4717C5.93419 14.1667 5.34585 14.1667 4.16669 14.1667ZM4.16669 14.1667C4.16669 12.0984 4.78669 11.6667 7.75669 11.6667H12.2434C15.2134 11.6667 15.8334 12.0984 15.8334 14.1667M15.8334 14.1667C14.6542 14.1667 14.065 14.1667 13.7 14.4717C13.3334 14.7767 13.3334 15.2684 13.3334 16.25C13.3334 17.2317 13.3342 17.7234 13.7 18.0284C14.0659 18.3334 14.6542 18.3334 15.8334 18.3334C17.0125 18.3334 17.6017 18.3334 17.9667 18.0284C18.3334 17.7234 18.3334 17.2317 18.3334 16.25C18.3334 15.2684 18.3325 14.7767 17.9667 14.4717C17.6009 14.1667 17.0125 14.1667 15.8334 14.1667ZM10 5.41669L10.8334 4.16669M13.75 5.41669C13.75 6.41125 13.3549 7.36508 12.6517 8.06834C11.9484 8.7716 10.9946 9.16669 10 9.16669C9.00546 9.16669 8.05163 8.7716 7.34837 8.06834C6.64511 7.36508 6.25002 6.41125 6.25002 5.41669C6.25002 4.42213 6.64511 3.4683 7.34837 2.76504C8.05163 2.06178 9.00546 1.66669 10 1.66669C10.9946 1.66669 11.9484 2.06178 12.6517 2.76504C13.3549 3.4683 13.75 4.42213 13.75 5.41669Z" stroke="white" stroke-width="0.8" stroke-linecap="round" stroke-linejoin="round"/>
</svg>
