<svg width="20" height="20" viewBox="0 0 20 20" fill="none" xmlns="http://www.w3.org/2000/svg">
<path d="M4.16663 2.91669C4.16663 2.52835 4.16663 2.33419 4.22996 2.18085C4.31472 1.97707 4.47685 1.81523 4.68079 1.73085C4.83413 1.66669 5.02829 1.66669 5.41663 1.66669H12.9166C13.305 1.66669 13.4991 1.66669 13.6525 1.73002C13.8562 1.81478 14.0181 1.97691 14.1025 2.18085C14.1666 2.33419 14.1666 2.52835 14.1666 2.91669C14.1666 3.30502 14.1666 3.49919 14.1033 3.65252C14.0185 3.8563 13.8564 4.01814 13.6525 4.10252C13.4991 4.16669 13.305 4.16669 12.9166 4.16669H5.41663C5.02829 4.16669 4.83413 4.16669 4.68079 4.10335C4.47701 4.0186 4.31517 3.85646 4.23079 3.65252C4.16663 3.49919 4.16663 3.30502 4.16663 2.91669Z" stroke="white" stroke-width="0.8"/>
<path d="M2.91667 15H9.58333M9.58333 18.3334H6.63083C6.155 18.3334 5.91667 18.3334 5.69167 18.3025C5.0223 18.2108 4.39661 17.9179 3.8975 17.4625C3.73 17.3092 3.5775 17.1259 3.2725 16.7609C2.77328 16.1617 2.49992 15.4065 2.5 14.6267V14.1667M15.8333 10.4167V9.09002C15.8332 8.59352 15.7222 8.10332 15.5084 7.65522C15.2946 7.20712 14.9834 6.81244 14.5975 6.50002L12.6333 4.90919C12.1792 4.54169 11.9517 4.35752 11.6817 4.26252C11.4117 4.16669 11.12 4.16669 10.5358 4.16669H7.83583C7.25667 4.16669 6.9675 4.16669 6.7 4.26085C6.43167 4.35419 6.20583 4.53585 5.75333 4.89752L3.75083 6.49919C3.36056 6.81145 3.04551 7.20748 2.82899 7.65797C2.61248 8.10846 2.50004 8.60187 2.5 9.10169V10.8334M9.16667 10V13.3334M7.5 11.6667H10.8333" stroke="white" stroke-width="0.8" stroke-linecap="round"/>
<path d="M13.1442 13.9775C13.1442 13.9775 13.9709 14.1525 14.9092 15.0909C15.8475 16.0292 16.0225 16.8559 16.0225 16.8559M16.8867 13.1142C17.6817 13.9084 17.7075 15.1717 16.9442 15.935L15.1017 17.7767C14.3384 18.5409 13.075 18.515 12.28 17.72C11.485 16.925 11.4592 15.6617 12.2225 14.8984L14.065 13.0567C14.8284 12.2925 16.0917 12.3184 16.8867 13.1134V13.1142Z" stroke="white" stroke-width="0.8"/>
<path d="M2.91663 8.33337H6.04163M15.4166 8.33337H9.16663" stroke="white" stroke-width="0.8" stroke-linecap="round"/>
</svg>
