<svg width="20" height="20" viewBox="0 0 20 20" fill="none" xmlns="http://www.w3.org/2000/svg">
<path d="M9.98538 2C10.6498 2 11.2871 2.26375 11.7569 2.73323C12.2268 3.20271 12.4907 3.83946 12.4907 4.50341C12.4907 5.16735 12.2268 5.8041 11.7569 6.27358C11.2871 6.74306 10.6498 7.00682 9.98538 7.00682C9.32076 7.00682 8.68336 6.74301 8.21341 6.27342C7.74345 5.80383 7.47944 5.16694 7.47944 4.50285C7.47944 3.83875 7.74345 3.20186 8.21341 2.73227C8.68336 2.26269 9.32076 2 9.98538 2ZM9.98538 3.12299C9.8041 3.12299 9.6246 3.15867 9.45713 3.22799C9.28965 3.2973 9.13748 3.3989 9.0093 3.52698C8.88112 3.65506 8.77945 3.80711 8.71008 3.97445C8.64071 4.1418 8.605 4.32115 8.605 4.50228C8.605 4.68342 8.64071 4.86277 8.71008 5.03012C8.77945 5.19746 8.88112 5.34951 9.0093 5.47759C9.13748 5.60567 9.28965 5.70727 9.45713 5.77658C9.6246 5.8459 9.8041 5.88158 9.98538 5.88158C10.3516 5.88158 10.7029 5.7362 10.9618 5.47743C11.2208 5.21865 11.3663 4.86768 11.3663 4.50172C11.3663 4.13576 11.2208 3.78479 10.9618 3.52602C10.7029 3.26725 10.3516 3.12187 9.98538 3.12187M2.143 11.5662C2.143 11.7153 2.08374 11.8583 1.97825 11.9637C1.87276 12.0691 1.72968 12.1283 1.5805 12.1283C1.43132 12.1283 1.28824 12.0691 1.18275 11.9637C1.07726 11.8583 1.018 11.7153 1.018 11.5662V8.77168C1.01804 8.49635 1.1192 8.2306 1.3023 8.02485C1.48541 7.81909 1.73772 7.68764 2.01137 7.65543L2.143 7.64756H5.24462C5.08137 7.92998 4.98156 8.24452 4.95213 8.56934L4.94313 8.77168H2.14188L2.143 11.5662ZM18.4262 12.1283C18.5754 12.1283 18.7185 12.0691 18.824 11.9637C18.9295 11.8583 18.9887 11.7153 18.9887 11.5662V8.77168L18.9809 8.64128C18.9489 8.36764 18.8174 8.11525 18.6115 7.93206C18.4056 7.74887 18.1395 7.64763 17.8637 7.64756H14.7318C14.896 7.93196 15.0018 8.25796 15.0265 8.60419L15.0321 8.7728H17.8637V11.5662C17.8637 11.7153 17.923 11.8583 18.0285 11.9637C18.134 12.0691 18.2771 12.1283 18.4262 12.1283ZM12.7832 7.64756C13.059 7.64763 13.3251 7.74887 13.531 7.93206C13.7369 8.11525 13.8684 8.36764 13.9004 8.64128L13.9071 8.77168V11.5662C13.9071 11.7153 13.8479 11.8583 13.7424 11.9637C13.6369 12.0691 13.4938 12.1283 13.3446 12.1283C13.1954 12.1283 13.0524 12.0691 12.9469 11.9637C12.8414 11.8583 12.7821 11.7153 12.7821 11.5662V8.77168H7.19425V11.5662C7.19425 11.7153 7.13499 11.8583 7.0295 11.9637C6.92401 12.0691 6.78093 12.1283 6.63175 12.1283C6.48257 12.1283 6.33949 12.0691 6.234 11.9637C6.12851 11.8583 6.06925 11.7153 6.06925 11.5662V8.77168C6.06929 8.49635 6.17045 8.2306 6.35355 8.02485C6.53666 7.81909 6.78897 7.68764 7.06262 7.65543L7.19425 7.64756H12.7832ZM17.749 4.85638C17.749 4.2859 17.5222 3.73879 17.1185 3.3354C16.7148 2.93201 16.1672 2.70538 15.5963 2.70538C15.0254 2.70538 14.4778 2.93201 14.0741 3.3354C13.6704 3.73879 13.4436 4.2859 13.4436 4.85638C13.4436 5.42686 13.6704 5.97398 14.0741 6.37737C14.4778 6.78076 15.0254 7.00738 15.5963 7.00738C16.1672 7.00738 16.7148 6.78076 17.1185 6.37737C17.5222 5.97398 17.749 5.42686 17.749 4.85638ZM14.5686 4.85638C14.5686 4.58404 14.6769 4.32284 14.8696 4.13027C15.0624 3.93769 15.3238 3.8295 15.5963 3.8295C15.8689 3.8295 16.1303 3.93769 16.323 4.13027C16.5157 4.32284 16.624 4.58404 16.624 4.85638C16.624 5.12873 16.5157 5.38992 16.323 5.58249C16.1303 5.77507 15.8689 5.88326 15.5963 5.88326C15.3238 5.88326 15.0624 5.77507 14.8696 5.58249C14.6769 5.38992 14.5686 5.12873 14.5686 4.85638ZM4.393 2.70482C4.96393 2.70482 5.51147 2.93144 5.91518 3.33483C6.31889 3.73822 6.54569 4.28534 6.54569 4.85582C6.54569 5.4263 6.31889 5.97341 5.91518 6.3768C5.51147 6.78019 4.96393 7.00682 4.393 7.00682C3.82207 7.00682 3.27453 6.78019 2.87082 6.3768C2.46711 5.97341 2.24031 5.4263 2.24031 4.85582C2.24031 4.28534 2.46711 3.73822 2.87082 3.33483C3.27453 2.93144 3.82207 2.70482 4.393 2.70482ZM4.393 3.82894C4.12044 3.82894 3.85904 3.93713 3.66632 4.1297C3.47359 4.32228 3.36531 4.58347 3.36531 4.85582C3.36531 5.12816 3.47359 5.38936 3.66632 5.58193C3.85904 5.77451 4.12044 5.8827 4.393 5.8827C4.66556 5.8827 4.92696 5.77451 5.11968 5.58193C5.31241 5.38936 5.42069 5.12816 5.42069 4.85582C5.42069 4.58347 5.31241 4.32228 5.11968 4.1297C4.92696 3.93713 4.66556 3.82894 4.393 3.82894ZM1.5625 13.2524C1.41332 13.2524 1.27024 13.3116 1.16475 13.417C1.05926 13.5224 1 13.6654 1 13.8145V14.9386C1 15.6839 1.29632 16.3987 1.82376 16.9258C2.35121 17.4528 3.06658 17.7489 3.8125 17.7489H16.1875C16.9334 17.7489 17.6488 17.4528 18.1762 16.9258C18.7037 16.3987 19 15.6839 19 14.9386V13.8145C19 13.6654 18.9407 13.5224 18.8352 13.417C18.7298 13.3116 18.5867 13.2524 18.4375 13.2524H1.5625ZM2.125 14.9386V14.3765H17.875V14.9386C17.875 15.3858 17.6972 15.8147 17.3807 16.1309C17.0643 16.4471 16.6351 16.6248 16.1875 16.6248H3.8125C3.36495 16.6248 2.93572 16.4471 2.61926 16.1309C2.30279 15.8147 2.125 15.3858 2.125 14.9386Z" fill="white"/>
</svg>
