<svg width="20" height="20" viewBox="0 0 20 20" fill="none" xmlns="http://www.w3.org/2000/svg">
<path d="M16.5263 6.56836C15.8018 6.56836 15.2144 7.15579 15.2144 7.88029C15.2144 8.6048 15.8018 9.19223 16.5263 9.19223C17.2508 9.19223 17.8382 8.6048 17.8382 7.88029C17.8382 7.15579 17.2508 6.56836 16.5263 6.56836ZM16.5263 8.4129C16.2326 8.4129 15.9976 8.17401 15.9976 7.88421C15.9976 7.59441 16.2365 7.35552 16.5263 7.35552C16.8161 7.35552 17.055 7.59441 17.055 7.88421C17.055 8.17401 16.82 8.4129 16.5263 8.4129Z" fill="white"/>
<path d="M12.8101 6.56836C12.0856 6.56836 11.4982 7.15579 11.4982 7.88029C11.4982 8.6048 12.0856 9.19223 12.8101 9.19223C13.5346 9.19223 14.122 8.6048 14.122 7.88029C14.122 7.15579 13.5346 6.56836 12.8101 6.56836ZM12.8101 8.4129C12.5164 8.4129 12.2814 8.17401 12.2814 7.88421C12.2814 7.59441 12.5203 7.35552 12.8101 7.35552C13.0999 7.35552 13.3388 7.59441 13.3388 7.88421C13.3388 8.17401 13.0999 8.4129 12.8101 8.4129Z" fill="white"/>
<path d="M9.08964 6.56836C8.36514 6.56836 7.77771 7.15579 7.77771 7.88029C7.77771 8.6048 8.36514 9.19223 9.08964 9.19223C9.81415 9.19223 10.4016 8.6048 10.4016 7.88029C10.4016 7.15579 9.81415 6.56836 9.08964 6.56836ZM9.08964 8.4129C8.79593 8.4129 8.56095 8.17401 8.56095 7.88421C8.56095 7.59441 8.79984 7.35552 9.08964 7.35552C9.38336 7.35552 9.61834 7.59441 9.61834 7.88421C9.61834 8.17401 9.38336 8.4129 9.08964 8.4129Z" fill="white"/>
<path d="M17.388 3.05554H8.22799C7.01787 3.05554 6.0349 4.03851 6.0349 5.24863V5.47577C2.62387 5.69508 0 7.83725 0 10.4846C0 11.965 0.834156 13.3435 2.29491 14.299L1.95811 16.6174C1.93461 16.7741 2.00902 16.9307 2.14609 17.009C2.20875 17.0443 2.27533 17.0639 2.34582 17.0639C2.42806 17.0639 2.5103 17.0365 2.58079 16.9856L4.80521 15.3251C5.38872 15.4504 5.99182 15.513 6.59884 15.513C9.1248 15.513 11.4158 14.4165 12.5202 12.7051H13.7734L16.4599 15.3916C16.5343 15.4661 16.6361 15.5052 16.7379 15.5052C16.7889 15.5052 16.8398 15.4974 16.8868 15.4739C17.0317 15.4151 17.1296 15.2702 17.1296 15.1136V12.7051H17.392C18.6021 12.7051 19.585 11.7221 19.585 10.512V5.24863C19.5811 4.03851 18.5981 3.05554 17.388 3.05554ZM6.59884 14.7337C5.99182 14.7337 5.38481 14.6632 4.80521 14.5262C4.69164 14.4987 4.57415 14.5222 4.48016 14.5927L2.86668 15.795L3.10557 14.162C3.12906 14.0053 3.05465 13.8526 2.91759 13.7703C1.56257 12.9558 0.783245 11.7574 0.783245 10.4846C0.783245 8.30328 3.10557 6.47049 6.0349 6.25901V10.5159C6.0349 11.7261 7.01787 12.709 8.22799 12.709H11.5529C10.5033 13.9583 8.64311 14.7337 6.59884 14.7337ZM18.7979 10.5159C18.7979 11.2914 18.1674 11.9258 17.388 11.9258H16.734C16.5186 11.9258 16.3424 12.102 16.3424 12.3174V14.1737L14.212 12.0433C14.1376 11.9689 14.0397 11.9297 13.9339 11.9297H8.22799C7.45257 11.9297 6.81815 11.2992 6.81815 10.5199V5.24863C6.81815 4.47321 7.44866 3.83879 8.22799 3.83879H17.388C18.1634 3.83879 18.7979 4.4693 18.7979 5.24863V10.5159Z" fill="white"/>
</svg>
