<svg width="20" height="20" viewBox="0 0 20 20" fill="none" xmlns="http://www.w3.org/2000/svg">
<g clip-path="url(#clip0_297_7645)">
<path d="M8.45714 3.67143H7.47571C7.23437 3.67242 6.99894 3.74616 6.80016 3.88301C6.60138 4.01987 6.44848 4.21348 6.36142 4.43857L5.84714 5.76715L4.07571 6.77143L2.66428 6.55715C2.42919 6.52552 2.19 6.56428 1.97692 6.66853C1.76385 6.77278 1.58645 6.93784 1.46714 7.14286L0.988566 7.98143C0.866536 8.19012 0.810383 8.4308 0.827462 8.67195C0.844541 8.91309 0.934056 9.14345 1.08428 9.33286L1.98142 10.4471V12.4571L1.10857 13.5714C0.958342 13.7608 0.868827 13.9912 0.851748 14.2323C0.834669 14.4735 0.890822 14.7142 1.01285 14.9229L1.49142 15.76C1.61054 15.9653 1.78785 16.1306 2.00094 16.2351C2.21403 16.3397 2.45333 16.3786 2.68857 16.3471L4.1 16.1329L5.84714 17.1371L6.36142 18.4657C6.4487 18.6905 6.6017 18.8838 6.80047 19.0204C6.99923 19.157 7.23454 19.2306 7.47571 19.2314H8.48142C8.72235 19.2303 8.95735 19.1566 9.15583 19.02C9.35431 18.8835 9.50709 18.6903 9.59428 18.4657L10.1086 17.1371L11.8557 16.1314L13.2686 16.3471C13.5037 16.3788 13.7429 16.34 13.9559 16.2358C14.169 16.1315 14.3464 15.9665 14.4657 15.7614L14.9443 14.9229C15.0666 14.714 15.123 14.4731 15.1059 14.2316C15.0888 13.9902 14.9991 13.7595 14.8486 13.57L13.95 12.4571V11.1614M5.57285 11.4514C5.56505 11.7707 5.6212 12.0883 5.73798 12.3855C5.85476 12.6827 6.02982 12.9536 6.25286 13.1821C6.47589 13.4107 6.7424 13.5923 7.03668 13.7163C7.33096 13.8403 7.64708 13.9042 7.96642 13.9042C8.28577 13.9042 8.60188 13.8403 8.89617 13.7163C9.19045 13.5923 9.45696 13.4107 9.67999 13.1821C9.90303 12.9536 10.0781 12.6827 10.1949 12.3855C10.3117 12.0883 10.3678 11.7707 10.36 11.4514C10.3447 10.8267 10.0859 10.2328 9.63864 9.79634C9.19142 9.35992 8.5913 9.11563 7.96642 9.11563C7.34155 9.11563 6.74143 9.35992 6.29421 9.79634C5.84699 10.2328 5.58811 10.8267 5.57285 11.4514ZM11.5714 5.06C11.1343 4.98429 11.1343 4.35429 11.5714 4.27857C12.3489 4.14352 13.0685 3.77991 13.6384 3.23414C14.2084 2.68837 14.6028 1.98518 14.7714 1.21429L14.7971 1.09286C14.8929 0.660002 15.51 0.657145 15.6086 1.09L15.6414 1.23C15.8157 1.99717 16.2131 2.6956 16.7835 3.23734C17.354 3.77907 18.072 4.13987 18.8471 4.27429C19.2886 4.35143 19.2886 4.98429 18.8471 5.06C18.072 5.19442 17.354 5.55522 16.7835 6.09695C16.2131 6.63869 15.8157 7.33713 15.6414 8.10429L15.6086 8.24572C15.51 8.67857 14.8929 8.67429 14.7971 8.24143L14.7714 8.12143C14.6028 7.35119 14.2086 6.6486 13.6393 6.10314C13.0699 5.55768 12.351 5.19405 11.5743 5.05857L11.5714 5.06Z" stroke="white" stroke-width="0.8" stroke-linecap="round" stroke-linejoin="round"/>
</g>
<defs>
<clipPath id="clip0_297_7645">
<rect width="20" height="20" fill="white"/>
</clipPath>
</defs>
</svg>
