<svg width="20" height="20" viewBox="0 0 20 20" fill="none" xmlns="http://www.w3.org/2000/svg">
<g clip-path="url(#clip0_297_7641)">
<path d="M9.47299 4.85292L15.4789 7.43369V6.25419C15.4789 5.72578 15.662 5.2385 15.9678 4.85292H9.47299ZM10.1577 15.6431C9.91991 15.6431 9.72754 15.4507 9.72754 15.213C9.72754 14.9752 9.91992 14.7829 10.1577 14.7829H17.243C17.4807 14.7829 17.6731 14.9752 17.6731 15.213C17.6731 15.4507 17.4807 15.6431 17.243 15.6431H10.1577ZM10.1577 14.2427C9.91991 14.2427 9.72754 14.0503 9.72754 13.8126C9.72754 13.5748 9.91992 13.3824 10.1577 13.3824H17.243C17.4807 13.3824 17.6731 13.5748 17.6731 13.8126C17.6731 14.0503 17.4807 14.2427 17.243 14.2427H10.1577ZM10.1577 12.8422C9.91991 12.8422 9.72754 12.6499 9.72754 12.4121C9.72754 12.1744 9.91992 11.982 10.1577 11.982H17.243C17.4807 11.982 17.6731 12.1744 17.6731 12.4121C17.6731 12.6499 17.4807 12.8422 17.243 12.8422H10.1577ZM10.1577 11.4418C9.91991 11.4418 9.72754 11.2494 9.72754 11.0117C9.72754 10.7739 9.91992 10.5816 10.1577 10.5816H17.243C17.4807 10.5816 17.6731 10.7739 17.6731 11.0117C17.6731 11.2494 17.4807 11.4418 17.243 11.4418H10.1577ZM13.4155 9.18106C13.6532 9.18106 13.8456 9.37344 13.8456 9.61119C13.8456 9.84894 13.6532 10.0413 13.4155 10.0413H10.1577C9.91991 10.0413 9.72754 9.84894 9.72754 9.61119C9.72754 9.37344 9.91992 9.18106 10.1577 9.18106H13.4155ZM7.39861 18.1467L4.57245 18.9036C4.23389 18.9943 3.86089 18.9422 3.5635 18.7549C3.29047 18.5877 3.07876 18.3206 2.99054 17.9896L0.0435179 6.98945C-0.0480522 6.64668 0.00907317 6.2972 0.173733 6.01073C0.339231 5.72343 0.613948 5.49912 0.957534 5.40754L2.74861 4.92784L2.73601 4.88248C2.64444 4.53971 2.70073 4.18939 2.86622 3.90208C3.05861 3.59966 3.29719 3.39466 3.65003 3.29973L12.0702 1.04328C12.4071 0.953388 12.7843 1.0038 13.0792 1.19198C13.3522 1.35915 13.5639 1.6263 13.6521 1.9573L14.1974 3.992H17.7392C18.3609 3.992 18.9271 4.24655 19.3363 4.65567C19.7454 5.06479 19.9999 5.63103 19.9999 6.2527V18.5686C19.9999 18.9222 19.8546 19.2457 19.6211 19.4801C19.3774 19.7237 19.0523 19.8615 18.7079 19.8615H8.69061C8.3361 19.8615 8.01267 19.7161 7.77827 19.4809C7.54389 19.2482 7.39771 18.9248 7.39771 18.5686V18.1451L7.39861 18.1467ZM2.97043 5.75702L1.17852 6.23756C1.06427 6.26781 0.971855 6.34342 0.91556 6.44003C0.860115 6.53496 0.841632 6.65257 0.872715 6.7685L3.81974 17.7686C3.8483 17.877 3.91719 17.9652 4.00456 18.0215C4.11797 18.0836 4.22214 18.1088 4.35069 18.0744L7.39858 17.2578V16.7613L7.26584 16.7966C6.9298 16.8865 6.55176 16.8361 6.25689 16.6479C5.98386 16.4807 5.77216 16.2136 5.68394 15.8826L2.97043 5.75702ZM13.3086 3.99283L12.823 2.1799C12.7944 2.07153 12.7255 1.98332 12.6382 1.92703C12.5248 1.86487 12.4206 1.83966 12.2921 1.87411L3.87186 4.13056C3.76097 4.15996 3.66436 4.23305 3.60974 4.33302C3.55429 4.42879 3.53581 4.54641 3.56605 4.66149C4.54729 8.32855 5.53103 11.9948 6.51308 15.6616C6.54164 15.77 6.61053 15.8582 6.6979 15.9145C6.81131 15.9766 6.91548 16.0018 7.04403 15.9674L7.39854 15.8725V5.28636C7.39854 4.93017 7.54387 4.60671 7.77742 4.37317C8.01095 4.13963 8.33439 3.99429 8.6906 3.99429H13.3087L13.3086 3.99283ZM15.7382 8.48058L8.25886 5.2673L8.25802 18.5701C8.25802 18.6886 8.30675 18.7969 8.38488 18.8751C8.46217 18.954 8.57054 19.0019 8.68984 19.0019H18.7071C18.8264 19.0019 18.9356 18.954 19.0121 18.8767C19.091 18.7978 19.1389 18.6894 19.1389 18.5693V6.25339C19.1389 5.86862 18.981 5.5183 18.7273 5.26459C18.4735 5.01088 18.1224 4.85294 17.7385 4.85294C17.3537 4.85294 17.0025 5.01088 16.7488 5.26459C16.4951 5.5183 16.3372 5.86946 16.3372 6.25339V8.08479C16.3372 8.14108 16.3254 8.19905 16.3019 8.25449C16.2086 8.47207 15.9558 8.5729 15.7373 8.47964L15.7382 8.48058Z" fill="white"/>
</g>
<defs>
<clipPath id="clip0_297_7641">
<rect width="20" height="20" fill="white"/>
</clipPath>
</defs>
</svg>
