<svg width="20" height="20" viewBox="0 0 20 20" fill="none" xmlns="http://www.w3.org/2000/svg">
<path d="M19 8.8C19 9.58 18.496 10.24 17.8 10.492V16.3C17.8 17.788 16.588 19 15.1 19C13.612 19 12.4 17.788 12.4 16.3V14.2C12.4 13.54 11.86 13 11.2 13C10.54 13 10 13.54 10 14.2V16.6C10 17.926 8.926 19 7.6 19C6.274 19 5.2 17.926 5.2 16.6V10.558C2.836 10.264 1 8.242 1 5.8V2.8C1 2.47 1.27 2.2 1.6 2.2H2.8V1.6C2.8 1.27 3.07 1 3.4 1C3.73 1 4 1.27 4 1.6V4C4 4.33 3.73 4.6 3.4 4.6C3.07 4.6 2.8 4.33 2.8 4V3.4H2.2V5.8C2.2 7.786 3.814 9.4 5.8 9.4C7.786 9.4 9.4 7.786 9.4 5.8V3.4H8.8V4C8.8 4.33 8.53 4.6 8.2 4.6C7.87 4.6 7.6 4.33 7.6 4V1.6C7.6 1.27 7.87 1 8.2 1C8.53 1 8.8 1.27 8.8 1.6V2.2H10C10.33 2.2 10.6 2.47 10.6 2.8V5.8C10.6 8.242 8.764 10.264 6.4 10.558V16.6C6.4 17.26 6.94 17.8 7.6 17.8C8.26 17.8 8.8 17.26 8.8 16.6V14.2C8.8 12.874 9.874 11.8 11.2 11.8C12.526 11.8 13.6 12.874 13.6 14.2V16.3C13.6 17.128 14.272 17.8 15.1 17.8C15.928 17.8 16.6 17.128 16.6 16.3V10.492C15.904 10.24 15.4 9.58 15.4 8.8C15.4 7.81 16.21 7 17.2 7C18.19 7 19 7.81 19 8.8Z" fill="white"/>
</svg>
