<svg width="20" height="20" viewBox="0 0 20 20" fill="none" xmlns="http://www.w3.org/2000/svg">
<path d="M15.8021 1.66733C15.7851 1.66843 15.7683 1.67104 15.7517 1.67514L13.1144 2.32481C13.0406 2.34308 12.977 2.38993 12.9377 2.45505C12.8985 2.52017 12.8867 2.59823 12.9049 2.67205C12.9232 2.74587 12.97 2.80941 13.0352 2.8487C13.1003 2.88798 13.1783 2.89978 13.2522 2.88151L15.1984 2.40154C12.9789 6.52074 8.16654 9.31438 2.72129 9.5978C2.68356 9.5998 2.6466 9.60924 2.61254 9.62557C2.57847 9.6419 2.54796 9.6648 2.52277 9.69296C2.49759 9.72111 2.47821 9.75397 2.46576 9.78964C2.4533 9.8253 2.44802 9.86308 2.45022 9.9008C2.45427 9.97658 2.4882 10.0477 2.54458 10.0985C2.60095 10.1493 2.67517 10.1757 2.75097 10.1719C8.36396 9.87975 13.3543 7.01139 15.6913 2.69617L16.1264 4.66816C16.1429 4.7422 16.188 4.8067 16.252 4.84753C16.3159 4.88836 16.3934 4.9022 16.4675 4.88602C16.5414 4.86954 16.6058 4.82448 16.6466 4.76068C16.6875 4.69688 16.7014 4.61953 16.6854 4.5455L16.1012 1.8908C16.0863 1.82398 16.0479 1.76472 15.993 1.72373C15.9382 1.68275 15.8705 1.66274 15.8021 1.66733ZM14.8142 6.50349C14.7381 6.5032 14.6651 6.53313 14.6111 6.58669C14.5571 6.64026 14.5266 6.71307 14.5263 6.78912V17.5485H13.4488V9.4819C13.4487 9.4442 13.4412 9.40688 13.4267 9.37209C13.4121 9.33729 13.3909 9.3057 13.3642 9.27912C13.3374 9.25253 13.3057 9.23149 13.2708 9.21717C13.2359 9.20286 13.1986 9.19557 13.1609 9.19572H10.8092C10.7334 9.19602 10.6609 9.22628 10.6073 9.27991C10.5538 9.33353 10.5237 9.40615 10.5235 9.4819V17.5485H9.44374V11.0204C9.44344 10.9447 9.41325 10.8723 9.35974 10.8188C9.30624 10.7653 9.23377 10.7351 9.15811 10.7348H6.80415C6.72849 10.7351 6.65602 10.7653 6.60252 10.8188C6.54902 10.8723 6.51883 10.9447 6.51852 11.0204V17.5485H5.44096V11.9602C5.44065 11.8841 5.41016 11.8113 5.35617 11.7578C5.30219 11.7042 5.22914 11.6743 5.15309 11.6746H2.80138C2.72533 11.6743 2.65228 11.7042 2.59829 11.7578C2.54431 11.8113 2.51381 11.8841 2.5135 11.9602V17.5485H1.95456C1.91671 17.5484 1.87921 17.5557 1.84422 17.5701C1.80923 17.5845 1.77743 17.6057 1.75067 17.6325C1.72391 17.6593 1.70271 17.6911 1.6883 17.726C1.67389 17.761 1.66654 17.7985 1.66669 17.8364C1.66676 17.8741 1.67427 17.9114 1.68878 17.9462C1.7033 17.981 1.72453 18.0126 1.75127 18.0392C1.77801 18.0658 1.80973 18.0868 1.84461 18.1011C1.87949 18.1154 1.91686 18.1227 1.95456 18.1226H18.0127C18.0885 18.1223 18.161 18.092 18.2146 18.0384C18.2681 17.9848 18.2982 17.9121 18.2984 17.8364C18.2985 17.7987 18.2912 17.7614 18.277 17.7266C18.2627 17.6917 18.2417 17.66 18.2152 17.6333C18.1886 17.6066 18.1571 17.5853 18.1224 17.5708C18.0876 17.5562 18.0504 17.5487 18.0127 17.5485H17.4515V6.78912C17.4512 6.71346 17.421 6.64098 17.3675 6.58748C17.314 6.53398 17.2416 6.50379 17.1659 6.50349H14.8142ZM15.0998 7.07699H16.878V17.5485H15.0998V7.07699ZM11.097 9.76978H12.8752V17.5485H11.097V9.76978ZM7.09203 11.3083H8.87023V17.5485H7.09203V11.3083ZM3.08757 12.2464H4.86745V17.5485H3.08757V12.2464Z" fill="white"/>
</svg>
