<svg width="1166" height="477" viewBox="0 0 1166 477" fill="none" xmlns="http://www.w3.org/2000/svg">
<g clip-path="url(#clip0_2692_1177)">
<path d="M592.027 269.611V211.464H601.177V261.242H627.245V269.611H592.027ZM686.595 269.386C681.657 286.014 672.82 301.126 661.005 313.418C645.88 329.154 625.862 340.276 602.888 344.05C580.707 347.693 559.021 343.936 540.251 334.561C522.608 325.75 507.548 311.969 497.077 294.702L492.962 297.572L489.928 275.032L509.397 286.114L505.082 289.121C514.593 304.973 528.357 317.623 544.504 325.687C561.526 334.189 581.214 337.593 601.369 334.283C622.202 330.861 640.363 320.765 654.094 306.48C664.135 296.034 671.804 283.344 676.416 269.386H686.595ZM697.771 211.464H706.921V270.581H703.813L669.113 230.231V269.611H659.963V210.496H663.157L697.771 250.67V211.464ZM763.668 269.611H753.222L739.411 247.939L725.686 269.611H715.154L734.404 239.921L716.363 211.464H726.895L739.497 231.992L751.927 211.464H762.372L744.677 239.921L763.668 269.611ZM636.483 269.611V211.464H645.633V269.611H636.483Z" fill="#F08143"/>
<path d="M487.263 201.128C494.423 181.628 506.995 164.832 523.108 152.652C540.543 139.472 562.108 131.676 585.433 131.676C606.361 131.676 625.865 137.946 642.238 148.746C657.986 159.135 670.832 173.71 679.256 190.924L684.051 189.207L681.266 211.78L665.271 195.933L670.02 194.232C662.37 179.093 650.937 166.273 636.998 157.079C622.15 147.285 604.446 141.599 585.433 141.599C564.235 141.599 544.671 148.659 528.88 160.596C515.208 170.932 504.345 184.914 497.678 201.128H487.263ZM403.064 269.611V211.464H420.933C430.198 211.464 437.679 214.137 443.377 219.482C449.074 224.827 451.922 231.816 451.922 240.45C451.922 248.966 449.059 255.955 443.334 261.418C437.607 266.88 430.141 269.611 420.933 269.611H403.064ZM459.347 240.538C459.231 232.257 462.138 225.149 468.065 219.218C473.993 213.286 481.042 210.378 489.214 210.496C497.328 210.378 504.393 213.286 510.406 219.218C516.42 225.149 519.34 232.257 519.168 240.538C519.34 248.82 516.42 255.926 510.406 261.858C504.393 267.791 497.328 270.698 489.214 270.581C481.042 270.698 473.978 267.791 468.022 261.858C462.066 255.926 459.175 248.82 459.347 240.538ZM509.758 240.45C509.758 234.342 507.802 229.246 503.889 225.164C499.975 221.082 495.113 219.041 489.3 219.041C483.431 219.041 478.554 221.068 474.669 225.12C470.784 229.173 468.843 234.283 468.843 240.45C468.843 246.676 470.77 251.829 474.626 255.912C478.481 259.993 483.373 262.034 489.3 262.034C495.113 262.034 499.975 259.979 503.889 255.867C507.802 251.756 509.758 246.617 509.758 240.45ZM526.68 240.538C526.507 232.257 529.413 225.149 535.398 219.218C541.382 213.286 548.461 210.378 556.633 210.496C561.812 210.496 566.56 211.7 570.876 214.108C575.192 216.516 578.587 219.775 581.062 223.887L574.156 229.085C569.955 222.389 564.143 219.041 556.719 219.041C550.85 219.041 545.958 221.082 542.045 225.164C538.132 229.246 536.175 234.371 536.175 240.538C536.175 246.705 538.132 251.829 542.045 255.912C545.958 259.993 550.85 262.034 556.719 262.034C564.143 262.034 569.955 258.686 574.156 251.992L581.062 257.189C578.587 261.359 575.207 264.634 570.919 267.013C566.632 269.391 561.87 270.581 556.633 270.581C548.461 270.698 541.382 267.791 535.398 261.858C529.413 255.926 526.507 248.82 526.68 240.538ZM412.214 261.242H420.847C427.407 261.242 432.658 259.318 436.6 255.471C440.542 251.624 442.513 246.617 442.513 240.45C442.513 234.224 440.557 229.246 436.643 225.517C432.73 221.787 427.464 219.923 420.847 219.923H412.214V261.242Z" fill="#0093BA"/>
</g>
<defs>
<clipPath id="clip0_2692_1177">
<rect width="367" height="219" fill="white" transform="translate(400 129)"/>
</clipPath>
</defs>
</svg>
